. 
 
http://www.torrenting.com          :     Once & For all ;)


               www . Torrenting . Com 

(((((((((((((= Enjoy No RAR releases =))))))))))))))))))))


...................................NFO:....................................

.








































          
          
              
              
                    
                    
                    
                    
The.Amityville.Haunting.2011.BRRiP.XviD.AC3-SiC

Poster:
[img]http://cf2.imgobject.com/t/p/w500/nkXMMULByw20nLqUOHOl8j8T7mu.jpg[/img]


IMDB Link: 
http://www.imdb.com/title/tt2042447

Description:
Actual found footage that documents the horrifying experiences  of a family that moved into the infamous haunted house.
The family did not survive but the recordings did!!!

General:
Complete name                    : The.Amityville.Haunting.2011.BRRiP.XviD.AC3-SiC.avi
Format                           : AVI
Format/Info                      : Audio Video Interleave
File size                        : 1.00 GiB
Duration                         : 1h 26mn
Overall bit rate                 : 1 652 Kbps

Video
ID                               : 0
Format                           : MPEG-4 Visual
Format profile                   : Advanced Simple@L5
Format settings, BVOP            : 3
Format settings, QPel            : No
Format settings, GMC             : No warppoints
Format settings, Matrix          : Default (H.263)
Codec ID                         : XVID
Codec ID/Hint                    : XviD
Duration                         : 1h 26mn
Bit rate                         : 1 516 Kbps
Width                            : 720 pixels
Height                           : 400 pixels
Display aspect ratio             : 16:9
Frame rate                       : 23.976 fps
Color space                      : YUV
Chroma subsampling               : 4:2:0
Bit depth                        : 8 bits
Scan type                        : Progressive
Compression mode                 : Lossy
Bits/(Pixel*Frame)               : 0.220
Stream size                      : 941 MiB (92%)
Writing library                  : XviD 1.2.1 (UTC 2008-12-04)

Audio
ID                               : 1
Format                           : AC-3
Format/Info                      : Audio Coding 3
Mode extension                   : CM (complete main)
Codec ID                         : 2000
Duration                         : 1h 26mn
Bit rate mode                    : Constant
Bit rate                         : 128 Kbps
Channel(s)                       : 2 channels
Channel positions                : Front: L R
Sampling rate                    : 48.0 KHz
Bit depth                        : 16 bits
Compression mode                 : Lossy
Stream size                      : 79.4 MiB (8%)
Alignment                        : Aligned on interleaves
Interleave, duration             : 64 ms (1.53 video frames)
Interleave, preload duration     : 192 ms

Screenshots:
[IMG]http://img848.imageshack.us/img848/1876/vlcsnap2012011416h02m16.png[/IMG]
[IMG]http://img40.imageshack.us/img40/4382/vlcsnap2012011416h02m20.png[/IMG]
[IMG]http://img849.imageshack.us/img849/835/vlcsnap2012011416h02m36.png[/IMG]
[IMG]http://img803.imageshack.us/img803/2217/vlcsnap2012011416h02m42.png[/IMG]
[IMG]http://img215.imageshack.us/img215/7857/vlcsnap2012011416h03m03.png[/IMG]

Note:  Normally dont do XviD but have a couple of 720p x264's already scheduled, plus there is already a few real nice 720ps of this already out, so opted to do a simple XviD with a nice touch. Audio stripped from source converted to stereo ac3 with a bitrate of 128kbps, as the source had 448kbps 2ch audio, then muxed to our encode. :)  Normal rip, few filters, came together nice ;)

Source:  The.Amityville.Haunting.2011.BluRay.720p.AC3.x264-CHD  -  MANY THANKS :)


Enjoy!

Respects to T00NG0D, ELEKTRI4KA, PA, YeFsTe, MrRep and everyone in the struggle...